<svg width="473" height="380" viewBox="0 0 473 380" fill="none" xmlns="http://www.w3.org/2000/svg">
<g clip-path="url(#clip0_59_2108)">
<path d="M308.143 147.702L299.211 132.652C298.412 131.301 296.995 130.473 295.481 130.473H239.878C238.364 130.473 236.946 131.301 236.148 132.652L227.216 147.702C223.142 154.559 225.839 163.77 232.446 166.704V199.739C232.446 202.557 234.414 204.853 236.85 204.853H298.509C300.945 204.853 302.913 202.557 302.913 199.739V166.704C309.519 163.77 312.217 154.559 308.143 147.702ZM296.306 197.88H239.052V183.933H296.306V197.88ZM296.279 176.931H239.052V167.532C242.355 167.053 245.259 165.324 247.351 162.854C249.828 165.774 253.448 167.663 257.508 167.663C261.582 167.663 265.188 165.774 267.665 162.854C270.143 165.774 273.763 167.663 277.823 167.663C281.897 167.663 285.502 165.774 287.98 162.854C290.086 165.324 292.976 167.053 296.279 167.532V176.931ZM302.871 157.61C302.431 158.598 301.371 160.312 299.155 160.632C298.825 160.675 298.495 160.704 298.165 160.704C296.141 160.704 294.283 159.818 292.921 158.206L288.007 152.409L283.094 158.191C281.731 159.804 279.86 160.69 277.85 160.69C275.841 160.69 273.969 159.804 272.606 158.191L267.679 152.409L262.766 158.191C261.403 159.804 259.531 160.69 257.522 160.69C255.499 160.69 253.641 159.804 252.278 158.191L247.351 152.409L242.438 158.191C241.075 159.804 239.203 160.69 237.194 160.69C236.85 160.69 236.52 160.661 236.203 160.617C234.001 160.298 232.927 158.598 232.487 157.595C231.799 156.027 231.51 153.586 232.804 151.407L241.089 137.446H294.256L302.541 151.407C303.849 153.601 303.573 156.041 302.871 157.61V157.61Z" fill="#8B4C00"/>
</g>
<g clip-path="url(#clip1_59_2108)">
<path d="M241.192 165.069H219.66V123.443L279.121 60.6848C284.342 55.1735 280.645 45.7524 273.26 45.7524H149.911C142.526 45.7524 138.829 55.1735 144.05 60.6848L203.511 123.443V165.069H181.98C174.548 165.069 168.522 171.43 168.522 179.274C168.522 180.843 169.727 182.115 171.214 182.115H251.957C253.444 182.115 254.649 180.843 254.649 179.274C254.649 171.43 248.623 165.069 241.192 165.069ZM168.892 62.7977H254.279L211.586 107.861L168.892 62.7977ZM286.946 0.29834C265.882 0.29834 248.139 14.5738 241.467 34.3889H259.144C264.745 24.2505 275.047 17.3436 286.946 17.3436C304.754 17.3436 319.244 32.6347 319.244 51.4342C319.244 70.2337 304.754 85.5248 286.946 85.5248C282.223 85.5248 277.765 84.3884 273.718 82.4566L261.855 94.9778C269.193 99.7008 277.725 102.57 286.946 102.57C313.703 102.57 335.392 79.6761 335.392 51.4342C335.392 23.1923 313.703 0.29834 286.946 0.29834Z" fill="#FF900C"/>
</g>
<g filter="url(#filter0_d_59_2108)">
<path d="M98.0099 250.958V263.191H114.437V270.951H98.0099V283.883H116.534V291.852H88.2233V242.989H116.534V250.958H98.0099ZM134.656 292.481C131.487 292.481 128.644 291.922 126.127 290.803C123.611 289.638 121.607 288.077 120.115 286.12C118.671 284.163 117.879 281.996 117.739 279.619H127.595C127.782 281.11 128.504 282.345 129.762 283.324C131.067 284.302 132.675 284.792 134.586 284.792C136.45 284.792 137.894 284.419 138.92 283.673C139.992 282.928 140.527 281.972 140.527 280.807C140.527 279.549 139.875 278.617 138.57 278.011C137.312 277.359 135.285 276.66 132.488 275.914C129.599 275.215 127.222 274.493 125.358 273.747C123.541 273.001 121.956 271.859 120.605 270.322C119.3 268.784 118.647 266.71 118.647 264.1C118.647 261.956 119.253 259.999 120.465 258.228C121.723 256.457 123.494 255.059 125.778 254.034C128.108 253.009 130.834 252.496 133.956 252.496C138.57 252.496 142.252 253.661 145.001 255.991C147.751 258.275 149.265 261.374 149.545 265.288H140.178C140.038 263.751 139.386 262.539 138.221 261.653C137.102 260.721 135.588 260.255 133.677 260.255C131.906 260.255 130.531 260.582 129.553 261.234C128.62 261.886 128.154 262.795 128.154 263.96C128.154 265.265 128.807 266.267 130.112 266.966C131.417 267.619 133.444 268.294 136.193 268.993C138.99 269.692 141.296 270.415 143.114 271.16C144.931 271.906 146.493 273.071 147.798 274.656C149.149 276.194 149.848 278.244 149.895 280.807C149.895 283.044 149.265 285.048 148.007 286.819C146.796 288.59 145.025 289.988 142.695 291.013C140.411 291.992 137.731 292.481 134.656 292.481ZM149.819 272.489C149.819 268.481 150.635 264.986 152.266 262.003C153.897 258.974 156.157 256.644 159.047 255.013C161.936 253.335 165.245 252.496 168.973 252.496C173.773 252.496 177.734 253.708 180.857 256.131C184.026 258.508 186.146 261.863 187.218 266.197H176.662C176.103 264.52 175.148 263.215 173.796 262.283C172.492 261.304 170.86 260.815 168.903 260.815C166.107 260.815 163.893 261.84 162.262 263.89C160.631 265.894 159.816 268.76 159.816 272.489C159.816 276.17 160.631 279.036 162.262 281.087C163.893 283.091 166.107 284.093 168.903 284.093C172.864 284.093 175.451 282.322 176.662 278.78H187.218C186.146 282.974 184.026 286.306 180.857 288.776C177.688 291.246 173.727 292.481 168.973 292.481C165.245 292.481 161.936 291.666 159.047 290.035C156.157 288.357 153.897 286.027 152.266 283.044C150.635 280.015 149.819 276.496 149.819 272.489ZM186.279 272.349C186.279 268.434 187.048 264.962 188.586 261.933C190.17 258.904 192.29 256.574 194.947 254.943C197.65 253.312 200.656 252.496 203.964 252.496C206.854 252.496 209.37 253.079 211.514 254.244C213.704 255.409 215.452 256.877 216.757 258.648V253.125H226.613V291.852H216.757V286.19C215.499 288.007 213.751 289.522 211.514 290.734C209.324 291.899 206.784 292.481 203.895 292.481C200.632 292.481 197.65 291.642 194.947 289.965C192.29 288.287 190.17 285.933 188.586 282.904C187.048 279.829 186.279 276.31 186.279 272.349ZM216.757 272.489C216.757 270.112 216.291 268.085 215.359 266.407C214.427 264.683 213.168 263.378 211.584 262.492C210 261.56 208.299 261.094 206.481 261.094C204.663 261.094 202.986 261.537 201.448 262.422C199.91 263.308 198.652 264.613 197.673 266.337C196.741 268.015 196.275 270.019 196.275 272.349C196.275 274.679 196.741 276.729 197.673 278.5C198.652 280.225 199.91 281.553 201.448 282.485C203.032 283.417 204.71 283.883 206.481 283.883C208.299 283.883 210 283.44 211.584 282.555C213.168 281.623 214.427 280.318 215.359 278.64C216.291 276.916 216.757 274.865 216.757 272.489ZM240.366 258.787C241.624 256.923 243.349 255.409 245.539 254.244C247.776 253.079 250.316 252.496 253.158 252.496C256.467 252.496 259.45 253.312 262.106 254.943C264.809 256.574 266.93 258.904 268.467 261.933C270.052 264.916 270.844 268.388 270.844 272.349C270.844 276.31 270.052 279.829 268.467 282.904C266.93 285.933 264.809 288.287 262.106 289.965C259.45 291.642 256.467 292.481 253.158 292.481C250.269 292.481 247.729 291.922 245.539 290.803C243.395 289.638 241.671 288.147 240.366 286.33V291.852H230.579V240.123H240.366V258.787ZM260.848 272.349C260.848 270.019 260.359 268.015 259.38 266.337C258.448 264.613 257.19 263.308 255.605 262.422C254.067 261.537 252.389 261.094 250.572 261.094C248.801 261.094 247.123 261.56 245.539 262.492C244.001 263.378 242.743 264.683 241.764 266.407C240.832 268.131 240.366 270.158 240.366 272.489C240.366 274.819 240.832 276.846 241.764 278.57C242.743 280.295 244.001 281.623 245.539 282.555C247.123 283.44 248.801 283.883 250.572 283.883C252.389 283.883 254.067 283.417 255.605 282.485C257.19 281.553 258.448 280.225 259.38 278.5C260.359 276.776 260.848 274.726 260.848 272.349ZM277.327 248.511C275.602 248.511 274.158 247.976 272.993 246.904C271.874 245.785 271.315 244.41 271.315 242.779C271.315 241.148 271.874 239.797 272.993 238.725C274.158 237.606 275.602 237.047 277.327 237.047C279.051 237.047 280.472 237.606 281.591 238.725C282.756 239.797 283.338 241.148 283.338 242.779C283.338 244.41 282.756 245.785 281.591 246.904C280.472 247.976 279.051 248.511 277.327 248.511ZM282.15 253.125V291.852H272.364V253.125H282.15ZM283.71 272.349C283.71 268.434 284.479 264.962 286.017 261.933C287.602 258.904 289.722 256.574 292.378 254.943C295.081 253.312 298.087 252.496 301.396 252.496C304.286 252.496 306.802 253.079 308.946 254.244C311.136 255.409 312.884 256.877 314.189 258.648V253.125H324.045V291.852H314.189V286.19C312.93 288.007 311.183 289.522 308.946 290.734C306.755 291.899 304.216 292.481 301.326 292.481C298.064 292.481 295.081 291.642 292.378 289.965C289.722 288.287 287.602 285.933 286.017 282.904C284.479 279.829 283.71 276.31 283.71 272.349ZM314.189 272.489C314.189 270.112 313.723 268.085 312.791 266.407C311.858 264.683 310.6 263.378 309.016 262.492C307.431 261.56 305.73 261.094 303.913 261.094C302.095 261.094 300.417 261.537 298.88 262.422C297.342 263.308 296.083 264.613 295.105 266.337C294.173 268.015 293.707 270.019 293.707 272.349C293.707 274.679 294.173 276.729 295.105 278.5C296.083 280.225 297.342 281.553 298.88 282.485C300.464 283.417 302.142 283.883 303.913 283.883C305.73 283.883 307.431 283.44 309.016 282.555C310.6 281.623 311.858 280.318 312.791 278.64C313.723 276.916 314.189 274.865 314.189 272.489ZM339.405 261.164V279.898C339.405 281.203 339.708 282.159 340.314 282.765C340.967 283.324 342.039 283.603 343.53 283.603H348.074V291.852H341.922C333.673 291.852 329.549 287.844 329.549 279.829V261.164H324.935V253.125H329.549V243.548H339.405V253.125H348.074V261.164H339.405ZM385.521 271.65C385.521 273.048 385.428 274.306 385.241 275.425H356.93C357.163 278.221 358.142 280.411 359.866 281.996C361.59 283.58 363.711 284.372 366.227 284.372C369.862 284.372 372.449 282.811 373.987 279.689H384.542C383.424 283.417 381.28 286.493 378.111 288.916C374.942 291.293 371.051 292.481 366.437 292.481C362.709 292.481 359.353 291.666 356.371 290.035C353.435 288.357 351.128 286.003 349.45 282.974C347.819 279.945 347.004 276.45 347.004 272.489C347.004 268.481 347.819 264.962 349.45 261.933C351.081 258.904 353.365 256.574 356.301 254.943C359.237 253.312 362.616 252.496 366.437 252.496C370.119 252.496 373.404 253.288 376.294 254.873C379.23 256.457 381.49 258.717 383.074 261.653C384.705 264.543 385.521 267.875 385.521 271.65ZM375.385 268.854C375.338 266.337 374.429 264.333 372.659 262.842C370.888 261.304 368.721 260.535 366.157 260.535C363.734 260.535 361.684 261.281 360.006 262.772C358.375 264.217 357.373 266.244 357 268.854H375.385Z" fill="white"/>
</g>
<defs>
<filter id="filter0_d_59_2108" x="0.84288" y="149.667" width="472.058" height="230.194" filterUnits="userSpaceOnUse" color-interpolation-filters="sRGB">
<feFlood flood-opacity="0" result="BackgroundImageFix"/>
<feColorMatrix in="SourceAlpha" type="matrix" values="0 0 0 0 0 0 0 0 0 0 0 0 0 0 0 0 0 0 127 0" result="hardAlpha"/>
<feOffset/>
<feGaussianBlur stdDeviation="43.6901"/>
<feComposite in2="hardAlpha" operator="out"/>
<feColorMatrix type="matrix" values="0 0 0 0 0 0 0 0 0 0 0 0 0 0 0 0 0 0 0.45 0"/>
<feBlend mode="normal" in2="BackgroundImageFix" result="effect1_dropShadow_59_2108"/>
<feBlend mode="normal" in="SourceGraphic" in2="effect1_dropShadow_59_2108" result="shape"/>
</filter>
<clipPath id="clip0_59_2108">
<rect width="84.7807" height="74.3794" fill="white" transform="translate(225.287 130.473)"/>
</clipPath>
<clipPath id="clip1_59_2108">
<rect width="193.785" height="181.816" fill="white" transform="translate(141.608 0.29834)"/>
</clipPath>
</defs>
</svg>
